#!OML:ASF H:\LiuWeirdWalks\Patient Classification 1\Patient 1\Session 1\male.ASF
:FULLY-SPECIFIED
:DEGREES
192
root -0.780914 17.5862 -12.4408 9.7103 5.76182 12.8412
lowerback 10.5125 -0.335493 -13.7603
upperback -1.19451 -2.34207 -1.7014
thorax -6.77764 -0.653443 6.27915
lowerneck -18.207 -0.527081 4.81506
upperneck 18.5497 -0.787842 -5.8272
head 8.7514 -0.662445 -2.88456
rclavicle -1.19271e-014 -8.74653e-015
rhumerus -44.992 -11.6426 -70.9745
rradius 22.5923
rwrist -3.41788
rhand -16.9777 -5.15587
rfingers 7.12502
rthumb 9.25682 -34.9327
lclavicle -1.19271e-014 -8.74653e-015
lhumerus -25.3967 10.6438 83.2697
lradius 23.9259
lwrist 10.6657
lhand -16.0839 1.47563
lfingers 7.12502
lthumb 10.1192 31.2123
rfemur -42.8661 -13.837 7.60533
rtibia 59.6981
rfoot -15.0063 -19.3267
rtoes -8.04615
lfemur -6.3497 -0.428506 -36.3927
ltibia 23.8517
lfoot -14.5047 13.2706
ltoes -11.0212
193
root -0.778546 17.584 -12.1803 9.75067 5.74447 12.9759
lowerback 10.4863 -0.376995 -13.9763
upperback -1.2407 -2.42588 -1.71285
thorax -6.79042 -0.683161 6.39845
lowerneck -18.315 -0.504784 4.86405
upperneck 18.6133 -0.786753 -5.76778
head 8.79268 -0.652986 -2.87512
rclavicle -3.00165e-014 -3.89618e-014
rhumerus -45.9465 -12.0549 -70.2826
rradius 22.2299
rwrist -2.85702
rhand -17.0044 -5.03413
rfingers 7.12502
rthumb 9.23112 -34.8121
lclavicle -3.00165e-014 -3.89618e-014
lhumerus -24.2415 9.64509 83.893
lradius 24.9326
lwrist 11.7539
lhand -15.8284 1.18963
lfingers 7.12502
lthumb 10.3657 30.9141
rfemur -43.8211 -13.3796 7.59288
rtibia 57.1025
rfoot -14.0688 -19.364
rtoes -8.1675
lfemur -4.71304 0.20662 -36.4737
ltibia 22.4322
lfoot -14.1189 13.1581
ltoes -11.8141
194
root -0.778067 17.5821 -11.9171 9.80444 5.76589 13.0924
lowerback 10.4375 -0.435861 -14.1761
upperback -1.28269 -2.52598 -1.72188
thorax -6.78191 -0.723015 6.51266
lowerneck -18.3838 -0.484202 4.90642
upperneck 18.6372 -0.790721 -5.68657
head 8.81324 -0.64362 -2.85623
rclavicle -2.0773e-014 1.78906e-014
rhumerus -46.8935 -12.4951 -69.5668
rradius 21.8522
rwrist -2.29131
rhand -17.0443 -4.92864
rfingers 7.12502
rthumb 9.19263 -34.7083
lclavicle -2.0773e-014 1.78906e-014
lhumerus -23.1386 8.63389 84.4346
lradius 26.0205
lwrist 12.8287
lhand -15.6484 1.04967
lfingers 7.12502
lthumb 10.5393 30.7654
rfemur -44.6148 -12.9297 7.56224
rtibia 54.3652
rfoot -12.9442 -19.3605
rtoes -8.22895
lfemur -3.0422 0.809315 -36.4978
ltibia 20.9331
lfoot -13.6512 13.004
ltoes -12.6333
195
root -0.77914 17.5808 -11.651 9.87596 5.8213 13.1942
lowerback 10.3593 -0.510728 -14.3674
upperback -1.33046 -2.64104 -1.72519
thorax -6.75903 -0.771115 6.62922
lowerneck -18.3976 -0.460792 4.95952
upperneck 18.6084 -0.791855 -5.61083
head 8.80604 -0.63234 -2.83868
rclavicle 1.15792e-014 2.98177e-014
rhumerus -47.8483 -12.9478 -68.8237
rradius 21.4861
rwrist -1.75516
rhand -17.0581 -4.93075
rfingers 7.12502
rthumb 9.17924 -34.711
lclavicle 1.15792e-014 2.98177e-014
lhumerus -22.1081 7.61481 84.8906
lradius 27.151
lwrist 13.8509
lhand -15.5382 0.826678
lfingers 7.12502
lthumb 10.6457 30.537
rfemur -45.2591 -12.4826 7.50673
rtibia 51.522
rfoot -11.6803 -19.3229
rtoes -8.28022
lfemur -1.34457 1.31993 -36.4723
ltibia 19.3575
lfoot -13.0934 12.8183
ltoes -13.426
196
root -0.781324 17.58 -11.3822 9.96773 5.94447 13.2909
lowerback 10.2511 -0.619461 -14.5453
upperback -1.37629 -2.79302 -1.72366
thorax -6.70796 -0.839794 6.74702
lowerneck -18.3899 -0.434529 4.99243
upperneck 18.561 -0.787198 -5.51547
head 8.7892 -0.617519 -2.80962
rclavicle -6.86304e-014 -7.39479e-014
rhumerus -48.7825 -13.4212 -68.0479
rradius 21.1114
rwrist -1.22793
rhand -17.0462 -4.99015
rfingers 7.12502
rthumb 9.19072 -34.7699
lclavicle -6.86304e-014 -7.39479e-014
lhumerus -21.1458 6.602 85.2644
lradius 28.3505
lwrist 14.8368
lhand -15.5294 0.64975
lfingers 7.12502
lthumb 10.6541 30.3596
rfemur -45.7497 -12.0637 7.40979
rtibia 48.6226
rfoot -10.3844 -19.2694
rtoes -8.38157
lfemur 0.385501 1.6757 -36.4034
ltibia 17.6966
lfoot -12.421 12.5856
ltoes -14.2475
197
root -0.78439 17.5796 -11.11 10.0641 6.13125 13.3615
lowerback 10.1155 -0.754724 -14.6866
upperback -1.41826 -2.96906 -1.71104
thorax -6.63129 -0.923595 6.85796
lowerneck -18.4114 -0.408525 5.0108
upperneck 18.5337 -0.78031 -5.41625
head 8.7847 -0.602505 -2.7774
rclavicle 3.07122e-014 9.14409e-015
rhumerus -49.6959 -13.9508 -67.2003
rradius 20.7049
rwrist -0.664551
rhand -16.9885 -5.10064
rfingers 7.12502
rthumb 9.24643 -34.8779
lclavicle 3.07122e-014 9.14409e-015
lhumerus -20.2754 5.53679 85.5695
lradius 29.631
lwrist 15.8507
lhand -15.6588 0.466084
lfingers 7.12502
lthumb 10.5293 30.1824
rfemur -46.0787 -11.6491 7.28481
rtibia 45.7235
rfoot -9.20461 -19.2365
rtoes -8.55625
lfemur 2.16049 1.88133 -36.2687
ltibia 15.9539
lfoot -11.6216 12.2801
ltoes -15.1651
198
root -0.787918 17.5793 -10.8345 10.1659 6.3858 13.4121
lowerback 9.95818 -0.917644 -14.7901
upperback -1.45401 -3.17145 -1.69002
thorax -6.52926 -1.02393 6.95836
lowerneck -18.4592 -0.366416 5.04283
upperneck 18.5151 -0.749747 -5.34541
head 8.78909 -0.578733 -2.7548
rclavicle 5.01931e-015 3.97569e-016
rhumerus -50.5871 -14.5477 -66.2668
rradius 20.2539
rwrist -0.00875225
rhand -16.9176 -5.19311
rfingers 7.12502
rthumb 9.31482 -34.9673
lclavicle 5.01931e-015 3.97569e-016
lhumerus -19.4945 4.45619 85.8017
lradius 30.9903
lwrist 16.8262
lhand -15.8683 0.246252
lfingers 7.12502
lthumb 10.3272 29.9727
rfemur -46.254 -11.2372 7.11667
rtibia 42.8955
rfoot -8.30569 -19.2561
rtoes -8.88973
lfemur 3.97332 1.93964 -36.0769
ltibia 14.1361
lfoot -10.6942 11.8762
ltoes -16.1677
199
root -0.792476 17.5789 -10.5559 10.2688 6.70158 13.4041
lowerback 9.78633 -1.10209 -14.8273
upperback -1.49486 -3.39036 -1.64509
thorax -6.42112 -1.13484 7.04819
lowerneck -18.5286 -0.330748 5.03629
upperneck 18.5475 -0.718814 -5.26553
head 8.81499 -0.556491 -2.72397
rclavicle 4.27387e-015 -1.03368e-014
rhumerus -51.4728 -15.2241 -65.2086
rradius 19.7554
rwrist 0.738215
rhand -16.8224 -5.30961
rfingers 7.12502
rthumb 9.40668 -35.0797
lclavicle 4.27387e-015 -1.03368e-014
lhumerus -18.8207 3.37086 85.971
lradius 32.4153
lwrist 17.7367
lhand -16.1524 -0.014431
lfingers 7.12502
lthumb 10.0531 29.7254
rfemur -46.2898 -10.7866 6.94136
rtibia 40.2068
rfoot -7.80893 -19.3813
rtoes -9.43205
lfemur 5.80692 1.86461 -35.7868
ltibia 12.2693
lfoot -9.6347 11.3642
ltoes -17.3397
200
root -0.79768 17.5783 -10.2739 10.3647 7.07106 13.3306
lowerback 9.59479 -1.30637 -14.7887
upperback -1.52687 -3.62037 -1.57533
thorax -6.29053 -1.25599 7.12164
lowerneck -18.6231 -0.287205 5.04121
upperneck 18.6189 -0.671566 -5.22594
head 8.85942 -0.530213 -2.70793
rclavicle 3.93097e-014 3.1408e-014
rhumerus -52.3324 -15.9381 -64.0695
rradius 19.2331
rwrist 1.53783
rhand -16.7334 -5.44321
rfingers 7.12502
rthumb 9.49261 -35.2094
lclavicle 3.93097e-014 3.1408e-014
lhumerus -18.2288 2.31038 86.0816
lradius 33.9044
lwrist 18.5469
lhand -16.5002 -0.310764
lfingers 7.12502
lthumb 9.71761 29.4451
rfemur -46.1976 -10.3006 6.77129
rtibia 37.7338
rfoot -7.77534 -19.5736
rtoes -10.0964
lfemur 7.65412 1.65617 -35.3997
ltibia 10.3857
lfoot -8.45322 10.7504
ltoes -18.6749
201
root -0.803479 17.5784 -9.98791 10.4328 7.47473 13.1812
lowerback 9.40714 -1.51181 -14.6705
upperback -1.5582 -3.84187 -1.47741
thorax -6.1651 -1.3753 7.17896
lowerneck -18.6568 -0.25787 5.02753
upperneck 18.67 -0.632228 -5.20476
head 8.88549 -0.510521 -2.6949
rclavicle 2.68856e-014 -7.95139e-015
rhumerus -53.2094 -16.7181 -62.7953
rradius 18.6875
rwrist 2.42698
rhand -16.6468 -5.56589
rfingers 7.12502
rthumb 9.57614 -35.3283
lclavicle 2.68856e-014 -7.95139e-015
lhumerus -17.701 1.30536 86.1528
lradius 35.3956
lwrist 19.2211
lhand -16.864 -0.689672
lfingers 7.12502
lthumb 9.36658 29.0822
rfemur -45.9824 -9.7744 6.63225
rtibia 35.5387
rfoot -8.14561 -19.7858
rtoes -10.8294
lfemur 9.4956 1.19093 -34.9387
ltibia 8.54254
lfoot -7.10361 10.1801
ltoes -20.0694
202
root -0.809612 17.5796 -9.697 10.4524 7.92034 12.9648
lowerback 9.23633 -1.72155 -14.4769
upperback -1.58562 -4.0623 -1.3554
thorax -6.04766 -1.49618 7.21971
lowerneck -18.6179 -0.240837 5.00058
upperneck 18.694 -0.59893 -5.20369
head 8.88877 -0.496285 -2.68589
rclavicle 1.3418e-015 -1.19271e-014
rhumerus -54.1123 -17.5095 -61.4239
rradius 18.138
rwrist 3.3372
rhand -16.5844 -5.65567
rfingers 7.12502
rthumb 9.63636 -35.4153
lclavicle 1.3418e-015 -1.19271e-014
lhumerus -17.243 0.368303 86.1886
lradius 36.8862
lwrist 19.7555
lhand -17.2544 -1.07412
lfingers 7.12502
lthumb 8.98987 28.7143
rfemur -45.637 -9.25089 6.54466
rtibia 33.6857
rfoot -8.80746 -19.9457
rtoes -11.4982
lfemur 11.324 0.695952 -34.3847
ltibia 6.80712
lfoot -5.68051 9.46247
ltoes -21.532
